<svg id="Layer_1" data-name="Layer 1" xmlns="http://www.w3.org/2000/svg" viewBox="0 0 128 128"><defs><style>.cls-1{fill:#2d3e50;}.cls-2{fill:#2e79bd;}</style></defs><title>n</title><path class="cls-1" d="M121.10477,46.58306A61.97741,61.97741,0,0,0,2.0226,70.709v37.753H2.039a7.69817,7.69817,0,0,0,3.61605,6.39936l7.04707,4.40552h10.381a3.33362,3.33362,0,0,0,3.334-3.334V81.83476a3.33362,3.33362,0,0,0-3.334-3.334h-8.0768V70.709a48.99362,48.99362,0,0,1,97.98724,0v7.79176h-8.07679a3.33362,3.33362,0,0,0-3.334,3.334v34.09809a3.33362,3.33362,0,0,0,3.334,3.334h10.381l7.04705-4.40552A7.69808,7.69808,0,0,0,125.961,108.462h.01643V70.709A61.61629,61.61629,0,0,0,121.10477,46.58306Z" id="id_105" style="fill: #fff;"></path><path class="cls-2" d="M72.0985,72.7894H55.90212a18.14308,18.14308,0,0,0,0,36.28617H71.402l10.58264,9.63758a2.12413,2.12413,0,0,0,3.55379-1.57017v-8.06741h2.57921a2.1259,2.1259,0,0,0,2.12394-2.12391V90.93247A18.16343,18.16343,0,0,0,72.0985,72.7894ZM50.14316,94.346a3.50211,3.50211,0,1,1,3.50211-3.50211A3.50387,3.50387,0,0,1,50.14316,94.346Zm13.85589,0a3.50211,3.50211,0,1,1,3.50458-3.50211A3.50182,3.50182,0,0,1,63.999,94.346Zm13.85836,0a3.50211,3.50211,0,1,1,3.50211-3.50211A3.50178,3.50178,0,0,1,77.8574,94.346Z" id="id_106" style="fill: #fff;"></path></svg>