<?xml version="1.0" encoding="UTF-8"?>
<!DOCTYPE svg PUBLIC "-//W3C//DTD SVG 1.1//EN" "http://www.w3.org/Graphics/SVG/1.1/DTD/svg11.dtd">
<!-- Creator: CorelDRAW X7 -->
<svg xmlns="http://www.w3.org/2000/svg" xml:space="preserve" width="6.2981mm" height="7.0778mm" version="1.1" style="shape-rendering:geometricPrecision; text-rendering:geometricPrecision; image-rendering:optimizeQuality; fill-rule:evenodd; clip-rule:evenodd"
viewBox="0 0 630 708"
 xmlns:xlink="http://www.w3.org/1999/xlink">
 <defs>
  <style type="text/css">
   <![CDATA[
    .fil0 {fill:white}
   ]]>
  </style>
 </defs>
 <g id="Layer_x0020_1">
  <metadata id="CorelCorpID_0Corel-Layer"/>
  <path class="fil0" d="M564 708l-492 0c-8,0 -72,-37 -72,-44 1,-62 6,-535 13,-549l18 -20 0 -68c5,-7 17,-22 21,-27l510 0c4,5 15,20 21,27l0 68c17,10 23,10 29,16 12,11 16,493 18,550 0,6 -60,47 -66,47zm-453 -603l392 0c0,-12 0,-41 0,-54 0,0 -391,-4 -392,-2 0,15 0,42 0,56zm421 -56l28 -17 0 42 -28 -25zm-450 0l-28 -17 0 42 28 -25zm68 191c-14,-5 -24,-19 -24,-35 0,-49 75,-49 75,0 1,18 -12,33 -30,37 -8,195 293,194 285,0 -44,-9 -38,-74 7,-74 40,0 53,57 15,72 9,228 -342,222 -328,0zm3 -24c0,-9 4,-16 11,-16 5,1 11,7 11,16 2,-2 4,-8 4,-12 3,-20 -32,-23 -32,0 0,5 2,9 6,12zm299 0l0 -2c0,-9 5,-14 11,-14 5,0 11,5 12,15 2,-3 4,-7 4,-11 2,-20 -32,-23 -32,0 0,5 2,9 5,12z"/>
 </g>
</svg>
